<svg version="1.1" id="Layer_1" xmlns="http://www.w3.org/2000/svg" xmlns:xlink="http://www.w3.org/1999/xlink" x="0px" y="0px" width="100%" viewBox="0 0 807 805" enable-background="new 0 0 807 805" xml:space="preserve">
<path fill="#080808" opacity="1.000000" stroke="none" d="
M415.000000,1.000001 
	C416.714355,1.000000 418.428711,1.000000 420.761688,1.392963 
	C429.514282,2.231478 437.690186,2.298099 445.774567,3.192043 
	C472.419312,6.138319 498.687225,11.119576 524.341309,19.010534 
	C599.179138,42.029926 662.480530,82.782265 713.021301,142.750137 
	C747.578552,183.753052 772.879150,229.999191 788.910828,281.196564 
	C798.025085,310.303009 804.046875,340.050659 806.104614,370.547119 
	C806.520630,376.712646 807.357239,382.849792 808.000000,389.000000 
	C808.000000,398.354218 808.000000,407.708466 807.621582,417.741852 
	C806.845459,423.889252 806.390259,429.353973 806.059998,434.826294 
	C804.659973,458.027740 800.746094,480.855469 794.622253,503.215057 
	C768.197937,599.697449 714.288025,677.106262 632.050842,734.197632 
	C567.353088,779.112671 495.680298,803.692627 416.520203,805.098694 
	C415.341827,805.119690 414.173187,805.687500 413.000000,806.000000 
	C406.978851,806.000000 400.957703,806.000000 394.265625,805.613770 
	C378.859497,804.134521 364.029602,803.750977 349.408752,801.800537 
	C319.260620,797.778748 289.886627,790.347473 261.481689,779.317139 
	C197.550995,754.491455 143.177414,716.152893 98.439499,664.142090 
	C66.531540,627.046936 42.082310,585.554688 25.279274,539.630676 
	C12.907081,505.816559 5.117418,470.963501 2.865671,434.942383 
	C2.511594,429.278168 1.634996,423.646637 1.000000,418.000000 
	C1.000000,407.312439 1.000000,396.624878 1.398272,385.290527 
	C2.785626,360.920898 5.649197,337.454346 10.893389,314.267395 
	C27.329859,241.594421 60.713638,177.963760 112.282158,124.056946 
	C159.189423,75.022705 214.986191,40.212399 279.781738,19.897539 
	C308.575989,10.869892 337.966217,5.007498 368.092926,2.881518 
	C373.413055,2.506088 378.698517,1.639678 384.000000,1.000000 
	C385.066681,1.000000 386.133331,1.000000 387.809753,1.379865 
	C395.123413,1.817936 401.828094,1.954956 408.530792,1.888860 
	C410.689911,1.867569 412.843750,1.311452 415.000000,1.000001 
M151.945343,524.597229 
	C175.632706,575.329163 210.120590,617.020386 256.643341,648.330750 
	C303.361115,679.772339 354.925049,696.745789 411.328156,699.119690 
	C440.574005,700.350586 469.341858,697.656982 497.649384,690.424988 
	C554.388611,675.929138 602.808411,647.196716 642.855164,604.497498 
	C658.224487,588.110229 671.388916,570.053162 682.045898,550.212891 
	C684.260010,546.090881 684.790527,542.174622 682.183044,538.049011 
	C677.539795,530.702698 671.421448,530.190918 663.169312,536.353394 
	C631.323242,560.135315 595.287109,572.780823 555.884033,575.868591 
	C536.790039,577.364868 517.612915,577.205627 498.658966,573.928345 
	C488.437775,572.161011 478.357086,569.581177 468.212982,567.367859 
	C468.110138,566.839783 468.007324,566.311646 467.904480,565.783569 
	C468.855591,565.101807 469.924072,564.537598 470.740906,563.721497 
	C510.822754,523.676941 550.907471,483.635010 590.889221,443.490692 
	C593.459839,440.909607 596.012268,439.908600 599.600891,439.946259 
	C609.922302,440.054657 620.261475,440.044647 630.562378,439.495056 
	C633.348755,439.346375 634.800171,439.342102 636.619568,441.795898 
	C646.881226,455.636230 663.197083,460.170044 678.522949,453.981964 
	C693.130310,448.083984 702.693909,431.898285 700.184265,415.909637 
	C697.491943,398.757660 683.908020,386.163574 666.266724,385.336334 
	C650.517456,384.597809 634.728943,396.332550 631.134888,412.048492 
	C630.053406,416.777405 627.676025,418.087952 623.390198,418.041748 
	C614.892395,417.950165 606.392029,418.102020 597.893921,418.027252 
	C589.329041,417.951935 582.444031,420.836761 576.207825,427.123077 
	C533.489136,470.185242 490.497406,512.976501 447.549286,555.810547 
	C446.635223,556.722229 444.791229,557.950256 444.055176,557.602783 
	C434.196167,552.948364 424.457397,548.039185 414.059448,542.881165 
	C416.035492,541.027161 417.156342,540.036438 418.209778,538.978455 
	C462.534882,494.462250 506.733551,449.818726 551.305237,405.550751 
	C557.910156,398.990784 560.674194,392.140930 560.391724,383.069824 
	C559.951782,368.942352 560.275391,354.791107 560.275391,340.776306 
	C580.099609,332.809052 588.877625,318.726746 585.964294,299.935577 
	C583.617920,284.801331 569.779846,272.438110 552.684692,271.389832 
	C537.256836,270.443787 522.305725,279.756622 516.982178,295.391479 
	C514.434082,302.875000 514.385864,310.262817 516.923462,317.778870 
	C520.677734,328.898956 528.613037,335.885223 538.994446,340.293335 
	C538.994446,354.496582 538.908752,368.326538 539.061157,382.153900 
	C539.094727,385.200348 538.264709,387.320770 536.064453,389.514984 
	C490.281830,435.171295 444.589935,480.918427 398.872772,526.640320 
	C397.965759,527.547485 396.971924,528.367920 395.600281,529.606567 
	C387.339050,522.386047 379.281738,515.343750 370.182892,507.391174 
	C394.013733,484.038513 416.977448,461.285980 440.277069,438.882782 
	C445.949249,433.428802 448.033081,427.278900 447.942749,419.785614 
	C447.804169,408.288544 447.992279,396.787231 447.815582,385.291168 
	C447.771820,382.443787 448.636871,381.093689 451.265747,379.856659 
	C464.197144,373.771576 472.676392,360.159912 471.859985,347.371155 
	C470.676880,328.838196 457.024841,315.029938 438.442749,313.571503 
	C415.889465,311.801361 397.723145,333.116211 402.749451,355.156494 
	C405.732056,368.235107 413.834839,376.549774 426.012115,381.632965 
	C426.012115,394.144257 426.073273,406.635193 425.927826,419.123718 
	C425.911285,420.542023 425.069519,422.281586 424.045380,423.308807 
	C401.576111,445.844910 379.026917,468.301300 356.200226,491.064911 
	C355.890106,490.634064 355.536530,490.098419 355.139313,489.597351 
	C326.553558,453.536774 311.728912,412.368530 310.084503,366.517273 
	C309.015320,336.705750 314.144623,307.799652 325.036530,280.022034 
	C340.407806,240.820694 363.905212,207.425003 397.262543,181.437866 
	C420.520020,163.319061 446.841797,151.508194 475.602173,145.031555 
	C482.417847,143.496735 485.399872,139.449539 485.100128,133.186676 
	C484.834351,127.633308 480.428619,122.879044 474.250549,122.083885 
	C459.957611,120.244324 445.664856,118.326996 431.322296,116.965050 
	C398.537384,113.851845 366.437805,118.148941 334.920288,127.083153 
	C272.882690,144.668823 222.488876,179.678574 183.303726,230.562103 
	C149.724152,274.166534 130.927689,323.682892 126.819572,378.721405 
	C125.227089,400.056793 125.526550,421.328430 128.243362,442.500488 
	C131.873535,470.790283 139.553635,498.006592 151.945343,524.597229 
z" data-index="0" style="opacity: 1;"></path>

<path fill="#FFFFFF" opacity="1.000000" stroke="none" d="
M1.000000,418.468658 
	C1.634996,423.646637 2.511594,429.278168 2.865671,434.942383 
	C5.117418,470.963501 12.907081,505.816559 25.279274,539.630676 
	C42.082310,585.554688 66.531540,627.046936 98.439499,664.142090 
	C143.177414,716.152893 197.550995,754.491455 261.481689,779.317139 
	C289.886627,790.347473 319.260620,797.778748 349.408752,801.800537 
	C364.029602,803.750977 378.859497,804.134521 393.797363,805.613770 
	C263.073395,806.000000 132.146774,806.000000 1.000000,806.000000 
	C1.000000,676.979187 1.000000,547.958252 1.000000,418.468658 
z" data-index="2" style="opacity: 1; visibility: hidden; fill: rgb(121, 40, 202);"></path>

<path fill="#FFFFFF" opacity="1.000000" stroke="none" d="
M383.531342,1.000000 
	C378.698517,1.639678 373.413055,2.506088 368.092926,2.881518 
	C337.966217,5.007498 308.575989,10.869892 279.781738,19.897539 
	C214.986191,40.212399 159.189423,75.022705 112.282158,124.056946 
	C60.713638,177.963760 27.329859,241.594421 10.893389,314.267395 
	C5.649197,337.454346 2.785626,360.920898 1.398272,384.821838 
	C1.000000,257.073029 1.000000,129.146042 1.000000,1.000000 
	C128.354141,1.000000 255.708420,1.000000 383.531342,1.000000 
z" data-index="4" style="visibility: hidden;"></path>
<path fill="#5F5F60" opacity="1.000000" stroke="none" d="
M414.531342,1.000001 
	C412.843750,1.311452 410.689911,1.867569 408.530792,1.888860 
	C401.828094,1.954956 395.123413,1.817936 388.209747,1.379865 
	C396.687561,1.000000 405.375122,1.000000 414.531342,1.000001 
z" data-index="5"></path>
<path fill="#FDFDFD" opacity="1.000000" stroke="none" d="
M151.744965,524.272095 
	C139.553635,498.006592 131.873535,470.790283 128.243362,442.500488 
	C125.526550,421.328430 125.227089,400.056793 126.819572,378.721405 
	C130.927689,323.682892 149.724152,274.166534 183.303726,230.562103 
	C222.488876,179.678574 272.882690,144.668823 334.920288,127.083153 
	C366.437805,118.148941 398.537384,113.851845 431.322296,116.965050 
	C445.664856,118.326996 459.957611,120.244324 474.250549,122.083885 
	C480.428619,122.879044 484.834351,127.633308 485.100128,133.186676 
	C485.399872,139.449539 482.417847,143.496735 475.602173,145.031555 
	C446.841797,151.508194 420.520020,163.319061 397.262543,181.437866 
	C363.905212,207.425003 340.407806,240.820694 325.036530,280.022034 
	C314.144623,307.799652 309.015320,336.705750 310.084503,366.517273 
	C311.728912,412.368530 326.553558,453.536774 355.139313,489.597351 
	C355.536530,490.098419 355.890106,490.634064 356.200226,491.064911 
	C379.026917,468.301300 401.576111,445.844910 424.045380,423.308807 
	C425.069519,422.281586 425.911285,420.542023 425.927826,419.123718 
	C426.073273,406.635193 426.012115,394.144257 426.012115,381.632965 
	C413.834839,376.549774 405.732056,368.235107 402.749451,355.156494 
	C397.723145,333.116211 415.889465,311.801361 438.442749,313.571503 
	C457.024841,315.029938 470.676880,328.838196 471.859985,347.371155 
	C472.676392,360.159912 464.197144,373.771576 451.265747,379.856659 
	C448.636871,381.093689 447.771820,382.443787 447.815582,385.291168 
	C447.992279,396.787231 447.804169,408.288544 447.942749,419.785614 
	C448.033081,427.278900 445.949249,433.428802 440.277069,438.882782 
	C416.977448,461.285980 394.013733,484.038513 370.182892,507.391174 
	C379.281738,515.343750 387.339050,522.386047 395.600281,529.606567 
	C396.971924,528.367920 397.965759,527.547485 398.872772,526.640320 
	C444.589935,480.918427 490.281830,435.171295 536.064453,389.514984 
	C538.264709,387.320770 539.094727,385.200348 539.061157,382.153900 
	C538.908752,368.326538 538.994446,354.496582 538.994446,340.293335 
	C528.613037,335.885223 520.677734,328.898956 516.923462,317.778870 
	C514.385864,310.262817 514.434082,302.875000 516.982178,295.391479 
	C522.305725,279.756622 537.256836,270.443787 552.684692,271.389832 
	C569.779846,272.438110 583.617920,284.801331 585.964294,299.935577 
	C588.877625,318.726746 580.099609,332.809052 560.275391,340.776306 
	C560.275391,354.791107 559.951782,368.942352 560.391724,383.069824 
	C560.674194,392.140930 557.910156,398.990784 551.305237,405.550751 
	C506.733551,449.818726 462.534882,494.462250 418.209778,538.978455 
	C417.156342,540.036438 416.035492,541.027161 414.059448,542.881165 
	C424.457397,548.039185 434.196167,552.948364 444.055176,557.602783 
	C444.791229,557.950256 446.635223,556.722229 447.549286,555.810547 
	C490.497406,512.976501 533.489136,470.185242 576.207825,427.123077 
	C582.444031,420.836761 589.329041,417.951935 597.893921,418.027252 
	C606.392029,418.102020 614.892395,417.950165 623.390198,418.041748 
	C627.676025,418.087952 630.053406,416.777405 631.134888,412.048492 
	C634.728943,396.332550 650.517456,384.597809 666.266724,385.336334 
	C683.908020,386.163574 697.491943,398.757660 700.184265,415.909637 
	C702.693909,431.898285 693.130310,448.083984 678.522949,453.981964 
	C663.197083,460.170044 646.881226,455.636230 636.619568,441.795898 
	C634.800171,439.342102 633.348755,439.346375 630.562378,439.495056 
	C620.261475,440.044647 609.922302,440.054657 599.600891,439.946259 
	C596.012268,439.908600 593.459839,440.909607 590.889221,443.490692 
	C550.907471,483.635010 510.822754,523.676941 470.740906,563.721497 
	C469.924072,564.537598 468.855591,565.101807 467.904480,565.783569 
	C468.007324,566.311646 468.110138,566.839783 468.212982,567.367859 
	C478.357086,569.581177 488.437775,572.161011 498.658966,573.928345 
	C517.612915,577.205627 536.790039,577.364868 555.884033,575.868591 
	C595.287109,572.780823 631.323242,560.135315 663.169312,536.353394 
	C671.421448,530.190918 677.539795,530.702698 682.183044,538.049011 
	C684.790527,542.174622 684.260010,546.090881 682.045898,550.212891 
	C671.388916,570.053162 658.224487,588.110229 642.855164,604.497498 
	C602.808411,647.196716 554.388611,675.929138 497.649384,690.424988 
	C469.341858,697.656982 440.574005,700.350586 411.328156,699.119690 
	C354.925049,696.745789 303.361115,679.772339 256.643341,648.330750 
	C210.120590,617.020386 175.632706,575.329163 151.744965,524.272095 
M374.595764,540.924011 
	C362.048096,528.090332 348.438721,516.120544 337.158020,502.256012 
	C307.078796,465.287201 291.208832,422.339050 288.163910,374.880798 
	C286.444458,348.081818 288.586548,321.414307 296.078491,295.496460 
	C314.550568,231.593323 351.059723,181.226334 408.678009,146.932938 
	C412.549896,144.628479 416.508484,142.469650 420.426727,140.243088 
	C418.969452,139.273727 417.738190,139.129715 416.505035,139.111145 
	C395.839996,138.799850 375.322540,140.693604 355.210876,145.220535 
	C311.717468,155.010406 272.602539,174.205811 239.131744,203.655701 
	C187.757889,248.857925 157.194031,305.248230 149.717133,373.846954 
	C146.345169,404.783752 147.950867,435.312225 155.287003,465.357574 
	C175.919327,549.857849 226.507324,610.965332 303.693268,649.638977 
	C347.731049,671.703918 395.142761,679.668274 444.425323,676.180115 
	C463.985535,674.795654 483.153412,671.634338 501.990631,666.244141 
	C543.958130,654.235474 580.578735,632.736389 612.731567,603.500671 
	C620.790894,596.172485 627.992065,587.900391 635.587585,580.062073 
	C634.059448,579.164124 633.194885,579.031616 632.527832,579.334351 
	C608.379822,590.291077 582.993103,596.129456 556.614990,598.218628 
	C529.922546,600.332764 503.580566,598.687439 477.515320,592.362000 
	C439.497101,583.135864 405.433990,566.072632 374.595764,540.924011 
M656.850586,431.783936 
	C662.119751,435.696442 667.653809,435.885315 672.971375,432.234344 
	C677.371216,429.213562 679.536133,424.744476 678.599792,419.310272 
	C677.610718,413.569733 672.747131,408.832367 667.449158,408.020813 
	C661.684143,407.137756 655.922729,409.962952 653.219910,414.998566 
	C650.455444,420.149170 651.564209,426.075653 656.850586,431.783936 
M546.328186,294.101349 
	C545.580383,294.462219 544.801514,294.770660 544.089722,295.192291 
	C539.060364,298.171448 536.496704,302.628815 537.074097,308.426392 
	C537.632263,314.031281 541.020752,317.845856 546.226990,319.752930 
	C551.422913,321.656219 557.451721,319.727753 561.112488,315.401276 
	C564.623230,311.252075 565.195496,305.515198 562.431396,300.591492 
	C559.040222,294.550812 553.671509,292.904175 546.328186,294.101349 
M443.464417,359.292877 
	C448.567596,356.118958 450.304047,351.612030 449.160095,345.734009 
	C448.156769,340.578644 444.862122,337.576263 440.197479,336.162384 
	C434.997833,334.586395 429.384949,336.867493 426.175995,341.283691 
	C423.052063,345.582886 423.140015,351.915314 426.381348,356.072815 
	C430.249512,361.034241 435.975311,362.331268 443.464417,359.292877 
z" data-index="6" style="opacity: 1;"></path>
<path fill="#080808" opacity="1.000000" stroke="none" d="
M374.883606,541.131104 
	C405.433990,566.072632 439.497101,583.135864 477.515320,592.362000 
	C503.580566,598.687439 529.922546,600.332764 556.614990,598.218628 
	C582.993103,596.129456 608.379822,590.291077 632.527832,579.334351 
	C633.194885,579.031616 634.059448,579.164124 635.587585,580.062073 
	C627.992065,587.900391 620.790894,596.172485 612.731567,603.500671 
	C580.578735,632.736389 543.958130,654.235474 501.990631,666.244141 
	C483.153412,671.634338 463.985535,674.795654 444.425323,676.180115 
	C395.142761,679.668274 347.731049,671.703918 303.693268,649.638977 
	C226.507324,610.965332 175.919327,549.857849 155.287003,465.357574 
	C147.950867,435.312225 146.345169,404.783752 149.717133,373.846954 
	C157.194031,305.248230 187.757889,248.857925 239.131744,203.655701 
	C272.602539,174.205811 311.717468,155.010406 355.210876,145.220535 
	C375.322540,140.693604 395.839996,138.799850 416.505035,139.111145 
	C417.738190,139.129715 418.969452,139.273727 420.426727,140.243088 
	C416.508484,142.469650 412.549896,144.628479 408.678009,146.932938 
	C351.059723,181.226334 314.550568,231.593323 296.078491,295.496460 
	C288.586548,321.414307 286.444458,348.081818 288.163910,374.880798 
	C291.208832,422.339050 307.078796,465.287201 337.158020,502.256012 
	C348.438721,516.120544 362.048096,528.090332 374.883606,541.131104 
z" data-index="7" style="opacity: 1;"></path>
<path fill="#0A0909" opacity="1.000000" stroke="none" d="
M656.560059,431.541626 
	C651.564209,426.075653 650.455444,420.149170 653.219910,414.998566 
	C655.922729,409.962952 661.684143,407.137756 667.449158,408.020813 
	C672.747131,408.832367 677.610718,413.569733 678.599792,419.310272 
	C679.536133,424.744476 677.371216,429.213562 672.971375,432.234344 
	C667.653809,435.885315 662.119751,435.696442 656.560059,431.541626 
z" data-index="8"></path>
<path fill="#080808" opacity="1.000000" stroke="none" d="
M546.743774,294.048218 
	C553.671509,292.904175 559.040222,294.550812 562.431396,300.591492 
	C565.195496,305.515198 564.623230,311.252075 561.112488,315.401276 
	C557.451721,319.727753 551.422913,321.656219 546.226990,319.752930 
	C541.020752,317.845856 537.632263,314.031281 537.074097,308.426392 
	C536.496704,302.628815 539.060364,298.171448 544.089722,295.192291 
	C544.801514,294.770660 545.580383,294.462219 546.743774,294.048218 
z" data-index="9"></path>
<path fill="#090909" opacity="1.000000" stroke="none" d="
M443.167664,359.550537 
	C435.975311,362.331268 430.249512,361.034241 426.381348,356.072815 
	C423.140015,351.915314 423.052063,345.582886 426.175995,341.283691 
	C429.384949,336.867493 434.997833,334.586395 440.197479,336.162384 
	C444.862122,337.576263 448.156769,340.578644 449.160095,345.734009 
	C450.304047,351.612030 448.567596,356.118958 443.167664,359.550537 
z" data-index="10"></path>
</svg>