<svg version="1.1" id="Layer_1" xmlns="http://www.w3.org/2000/svg" xmlns:xlink="http://www.w3.org/1999/xlink" x="0px" y="0px"
	 width="100%" viewBox="0 0 807 805" enable-background="new 0 0 807 805" xml:space="preserve">
<path fill="#080808" opacity="1.000000" stroke="none" 
	d="
M0.999999,413.000000 
	C1.000000,406.312347 1.000000,399.624725 1.392205,392.274719 
	C2.519405,380.679291 2.539113,369.639923 4.144743,358.836212 
	C7.094377,338.989197 9.664583,318.938385 14.714759,299.578156 
	C30.912491,237.482910 60.151684,182.125168 103.148781,134.189407 
	C133.196838,100.690010 167.657913,72.755531 207.090912,51.094791 
	C263.694763,20.002014 324.384125,3.748922 389.390045,1.934760 
	C396.272797,2.006736 402.692657,2.051778 409.108490,1.911495 
	C411.078033,1.868430 413.036469,1.318062 415.000000,0.999998 
	C415.444458,1.000000 415.888885,1.000000 416.859802,1.392239 
	C424.022675,2.174783 430.657135,2.602260 437.295837,2.948695 
	C460.973969,4.184320 484.242279,8.337829 507.063782,14.373056 
	C596.331482,37.980221 670.076416,85.358742 725.870544,159.452927 
	C777.019104,227.377655 803.756287,304.063080 807.030273,388.987732 
	C807.095032,390.668457 807.665466,392.329681 808.000000,394.000000 
	C808.000000,400.354401 808.000000,406.708801 807.614258,413.734009 
	C806.830261,420.540680 806.422363,426.675934 806.035583,432.812500 
	C804.588074,455.776947 800.854492,478.367676 794.961609,500.605347 
	C767.721619,603.397949 709.302368,683.780823 620.406616,741.798035 
	C561.724487,780.096619 497.116638,801.381653 427.032227,804.755249 
	C388.984741,806.586670 351.221832,803.734680 313.910400,795.083374 
	C247.094193,779.590881 188.565628,748.364319 137.102280,703.451965 
	C114.219383,683.481812 94.279419,660.791016 76.666557,636.075806 
	C30.150745,570.802795 4.818360,498.257477 2.011357,418.002991 
	C1.952688,416.325592 1.349279,414.667236 0.999999,413.000000 
M383.233887,193.724426 
	C387.946655,189.791351 392.532166,185.692856 397.393768,181.953323 
	C420.632568,164.078079 446.528534,151.885803 475.245422,145.720673 
	C482.005829,144.269318 486.052948,139.442154 485.817719,133.806808 
	C485.551514,127.429474 481.162689,122.926559 474.076263,121.796295 
	C471.463196,121.379517 468.830719,121.079094 466.224365,120.626137 
	C437.585480,115.649002 408.875610,114.248558 379.902313,117.691734 
	C347.677795,121.521278 317.027740,130.500900 287.818909,144.457611 
	C250.660873,162.212616 219.202103,187.313416 192.509720,218.608673 
	C170.333206,244.609360 153.261581,273.508392 141.781448,305.699219 
	C127.416008,345.980560 123.163284,387.444580 126.694862,429.947662 
	C129.082077,458.678131 135.355423,486.438629 146.390549,513.014160 
	C167.540527,563.949036 199.821899,606.473938 243.953201,639.729919 
	C295.569031,678.626038 353.963226,698.452576 418.407562,699.708008 
	C436.256012,700.055725 454.287445,698.368652 472.012512,695.970886 
	C498.748077,692.354187 524.314026,684.153198 548.879395,672.858032 
	C586.086243,655.750488 618.396118,631.998657 645.937195,601.759399 
	C660.340271,585.945190 672.664551,568.602661 682.781372,549.739868 
	C685.833740,544.048645 684.649780,539.284668 679.515137,534.655945 
	C675.339966,530.892151 670.845154,530.663635 665.542969,534.073120 
	C663.737976,535.233765 662.101013,536.652405 660.353699,537.906189 
	C628.095642,561.053223 591.931763,573.268066 552.486755,575.694458 
	C532.721558,576.910278 512.912720,576.478210 493.366486,572.717834 
	C485.223114,571.151245 477.205536,568.930664 468.619019,566.885559 
	C476.527130,558.864685 483.717194,551.502136 490.982758,544.214966 
	C524.143433,510.955627 557.365112,477.756927 590.429077,444.401886 
	C593.282104,441.523804 596.181335,440.364441 600.068054,440.405121 
	C611.509155,440.524902 622.952332,440.447815 635.068542,440.447815 
	C645.853394,455.758698 662.211182,461.184448 678.825012,454.227783 
	C694.277161,447.757507 703.498291,431.243256 700.515747,415.381500 
	C697.228943,397.901550 683.601318,385.511444 666.938416,385.051178 
	C650.255615,384.590363 633.860291,394.342865 629.358704,416.902710 
	C626.416870,417.190002 623.316956,417.696075 620.208252,417.758026 
	C611.048950,417.940643 601.882385,417.812317 592.726318,418.074768 
	C587.452026,418.225952 582.913818,420.209564 579.029907,424.088715 
	C559.351624,443.742828 539.521667,463.245056 519.772522,482.828369 
	C494.715027,507.675476 469.684021,532.549316 444.298218,557.752502 
	C434.910339,552.957703 425.105621,547.950012 414.294464,542.428345 
	C416.419769,540.717590 418.104889,539.601257 419.504303,538.199707 
	C463.532623,494.103912 507.438354,449.885040 551.639648,405.963531 
	C558.300049,399.345276 561.265686,392.206116 561.022095,382.966766 
	C560.649658,368.842133 560.924316,354.700470 560.924316,340.715149 
	C577.944336,335.129486 588.673218,319.608582 586.887024,303.649078 
	C584.927429,286.141541 571.233032,272.452820 554.273376,271.049133 
	C537.046082,269.623322 520.808655,280.250031 516.119202,296.455994 
	C511.832336,311.270905 516.394714,331.274078 538.654602,340.620880 
	C538.654602,353.582489 538.396729,366.583801 538.785889,379.565735 
	C538.934509,384.525970 537.354431,387.930908 533.944031,391.326385 
	C496.638611,428.469147 459.434631,465.713867 422.236938,502.964691 
	C413.554199,511.659882 404.999207,520.482666 396.146515,529.489746 
	C387.599030,522.086304 379.648163,515.199646 371.362457,508.022949 
	C394.715607,484.783936 417.228943,462.047821 440.179504,439.762024 
	C446.397125,433.724457 448.378143,427.072235 448.151184,418.829102 
	C447.808533,406.382751 448.061798,393.920013 448.061798,381.637573 
	C467.232391,374.485565 476.755798,354.472382 469.967224,336.377075 
	C463.039795,317.911652 442.322479,308.170593 424.095398,315.289764 
	C411.230408,320.314636 403.320953,329.929352 401.885925,343.841522 
	C400.189453,360.288788 407.412201,372.383606 421.808929,380.032776 
	C424.735748,381.587830 425.960297,382.853668 425.884003,386.215332 
	C425.645874,396.708801 425.901520,407.213135 425.699524,417.708099 
	C425.662720,419.619812 424.886627,422.018982 423.583527,423.330048 
	C401.274811,445.774567 378.829407,468.083221 356.357452,490.478180 
	C354.694763,488.234802 352.922668,485.872375 351.180054,483.488403 
	C313.405731,431.811462 302.365936,374.361420 315.752930,312.330475 
	C325.707672,266.203522 348.822845,227.015228 383.233887,193.724426 
z"/>
<path fill="#FFFFFF" opacity="1.000000" stroke="none" 
	d="
M0.999999,413.468658 
	C1.349279,414.667236 1.952688,416.325592 2.011357,418.002991 
	C4.818360,498.257477 30.150745,570.802795 76.666557,636.075806 
	C94.279419,660.791016 114.219383,683.481812 137.102280,703.451965 
	C188.565628,748.364319 247.094193,779.590881 313.910400,795.083374 
	C351.221832,803.734680 388.984741,806.586670 427.032227,804.755249 
	C497.116638,801.381653 561.724487,780.096619 620.406616,741.798035 
	C709.302368,683.780823 767.721619,603.397949 794.961609,500.605347 
	C800.854492,478.367676 804.588074,455.776947 806.035583,432.812500 
	C806.422363,426.675934 806.830261,420.540680 807.614258,414.202423 
	C808.000000,544.630798 808.000000,675.261536 808.000000,805.946167 
	C539.109802,805.946167 270.219604,805.946167 1.000000,805.946167 
	C1.000000,675.312622 1.000000,544.625000 0.999999,413.468658 
z"/>
<path fill="#FFFFFF" opacity="1.000000" stroke="none" 
	d="
M808.000000,393.531342 
	C807.665466,392.329681 807.095032,390.668457 807.030273,388.987732 
	C803.756287,304.063080 777.019104,227.377655 725.870544,159.452927 
	C670.076416,85.358742 596.331482,37.980221 507.063782,14.373056 
	C484.242279,8.337829 460.973969,4.184320 437.295837,2.948695 
	C430.657135,2.602260 424.022675,2.174783 417.193115,1.392239 
	C547.260559,1.000000 677.521179,1.000000 808.000000,1.000000 
	C808.000000,131.687485 808.000000,262.375092 808.000000,393.531342 
z"/>
<path fill="#FFFFFF" opacity="1.000000" stroke="none" 
	d="
M388.925629,1.836514 
	C324.384125,3.748922 263.694763,20.002014 207.090912,51.094791 
	C167.657913,72.755531 133.196838,100.690010 103.148781,134.189407 
	C60.151684,182.125168 30.912491,237.482910 14.714759,299.578156 
	C9.664583,318.938385 7.094377,338.989197 4.144743,358.836212 
	C2.539113,369.639923 2.519405,380.679291 1.392205,391.806213 
	C1.000000,261.739868 1.000000,131.479736 1.000000,1.000000 
	C130.020813,1.000000 259.041748,1.000000 388.528748,1.210552 
	C388.994843,1.421103 388.925629,1.836514 388.925629,1.836514 
z"/>
<path fill="#ACACAC" opacity="1.000000" stroke="none" 
	d="
M389.390045,1.934760 
	C388.925629,1.836514 388.994843,1.421103 388.997437,1.210552 
	C397.354218,1.000000 405.708466,1.000000 414.531342,0.999998 
	C413.036469,1.318062 411.078033,1.868430 409.108490,1.911495 
	C402.692657,2.051778 396.272797,2.006736 389.390045,1.934760 
z"/>
<path fill="#F9DE74" opacity="1.000000" stroke="none" 
	d="
M382.954773,193.943970 
	C348.822845,227.015228 325.707672,266.203522 315.752930,312.330475 
	C302.365936,374.361420 313.405731,431.811462 351.180054,483.488403 
	C352.922668,485.872375 354.694763,488.234802 356.357452,490.478180 
	C378.829407,468.083221 401.274811,445.774567 423.583527,423.330048 
	C424.886627,422.018982 425.662720,419.619812 425.699524,417.708099 
	C425.901520,407.213135 425.645874,396.708801 425.884003,386.215332 
	C425.960297,382.853668 424.735748,381.587830 421.808929,380.032776 
	C407.412201,372.383606 400.189453,360.288788 401.885925,343.841522 
	C403.320953,329.929352 411.230408,320.314636 424.095398,315.289764 
	C442.322479,308.170593 463.039795,317.911652 469.967224,336.377075 
	C476.755798,354.472382 467.232391,374.485565 448.061798,381.637573 
	C448.061798,393.920013 447.808533,406.382751 448.151184,418.829102 
	C448.378143,427.072235 446.397125,433.724457 440.179504,439.762024 
	C417.228943,462.047821 394.715607,484.783936 371.362457,508.022949 
	C379.648163,515.199646 387.599030,522.086304 396.146515,529.489746 
	C404.999207,520.482666 413.554199,511.659882 422.236938,502.964691 
	C459.434631,465.713867 496.638611,428.469147 533.944031,391.326385 
	C537.354431,387.930908 538.934509,384.525970 538.785889,379.565735 
	C538.396729,366.583801 538.654602,353.582489 538.654602,340.620880 
	C516.394714,331.274078 511.832336,311.270905 516.119202,296.455994 
	C520.808655,280.250031 537.046082,269.623322 554.273376,271.049133 
	C571.233032,272.452820 584.927429,286.141541 586.887024,303.649078 
	C588.673218,319.608582 577.944336,335.129486 560.924316,340.715149 
	C560.924316,354.700470 560.649658,368.842133 561.022095,382.966766 
	C561.265686,392.206116 558.300049,399.345276 551.639648,405.963531 
	C507.438354,449.885040 463.532623,494.103912 419.504303,538.199707 
	C418.104889,539.601257 416.419769,540.717590 414.294464,542.428345 
	C425.105621,547.950012 434.910339,552.957703 444.298218,557.752502 
	C469.684021,532.549316 494.715027,507.675476 519.772522,482.828369 
	C539.521667,463.245056 559.351624,443.742828 579.029907,424.088715 
	C582.913818,420.209564 587.452026,418.225952 592.726318,418.074768 
	C601.882385,417.812317 611.048950,417.940643 620.208252,417.758026 
	C623.316956,417.696075 626.416870,417.190002 629.358704,416.902710 
	C633.860291,394.342865 650.255615,384.590363 666.938416,385.051178 
	C683.601318,385.511444 697.228943,397.901550 700.515747,415.381500 
	C703.498291,431.243256 694.277161,447.757507 678.825012,454.227783 
	C662.211182,461.184448 645.853394,455.758698 635.068542,440.447815 
	C622.952332,440.447815 611.509155,440.524902 600.068054,440.405121 
	C596.181335,440.364441 593.282104,441.523804 590.429077,444.401886 
	C557.365112,477.756927 524.143433,510.955627 490.982758,544.214966 
	C483.717194,551.502136 476.527130,558.864685 468.619019,566.885559 
	C477.205536,568.930664 485.223114,571.151245 493.366486,572.717834 
	C512.912720,576.478210 532.721558,576.910278 552.486755,575.694458 
	C591.931763,573.268066 628.095642,561.053223 660.353699,537.906189 
	C662.101013,536.652405 663.737976,535.233765 665.542969,534.073120 
	C670.845154,530.663635 675.339966,530.892151 679.515137,534.655945 
	C684.649780,539.284668 685.833740,544.048645 682.781372,549.739868 
	C672.664551,568.602661 660.340271,585.945190 645.937195,601.759399 
	C618.396118,631.998657 586.086243,655.750488 548.879395,672.858032 
	C524.314026,684.153198 498.748077,692.354187 472.012512,695.970886 
	C454.287445,698.368652 436.256012,700.055725 418.407562,699.708008 
	C353.963226,698.452576 295.569031,678.626038 243.953201,639.729919 
	C199.821899,606.473938 167.540527,563.949036 146.390549,513.014160 
	C135.355423,486.438629 129.082077,458.678131 126.694862,429.947662 
	C123.163284,387.444580 127.416008,345.980560 141.781448,305.699219 
	C153.261581,273.508392 170.333206,244.609360 192.509720,218.608673 
	C219.202103,187.313416 250.660873,162.212616 287.818909,144.457611 
	C317.027740,130.500900 347.677795,121.521278 379.902313,117.691734 
	C408.875610,114.248558 437.585480,115.649002 466.224365,120.626137 
	C468.830719,121.079094 471.463196,121.379517 474.076263,121.796295 
	C481.162689,122.926559 485.551514,127.429474 485.817719,133.806808 
	C486.052948,139.442154 482.005829,144.269318 475.245422,145.720673 
	C446.528534,151.885803 420.632568,164.078079 397.393768,181.953323 
	C392.532166,185.692856 387.946655,189.791351 382.954773,193.943970 
M560.400269,315.876221 
	C561.275330,314.312225 562.337402,312.822144 562.990356,311.170349 
	C564.936401,306.247192 563.179810,300.079712 559.095947,296.933411 
	C554.336975,293.267151 548.374573,292.965332 543.484619,296.143311 
	C538.516296,299.372192 536.751831,304.609253 537.853149,310.122437 
	C539.443665,318.084717 550.800415,324.210815 560.400269,315.876221 
M653.186890,415.972412 
	C650.640137,423.409363 653.166931,429.970367 659.774658,433.077881 
	C665.343445,435.696838 672.804504,433.638947 675.940979,428.618927 
	C680.006470,422.112152 678.380432,414.016968 672.259277,410.289764 
	C665.526550,406.190216 658.158508,408.136230 653.186890,415.972412 
M424.197968,350.107056 
	C424.798279,351.632416 425.245483,353.241669 426.026855,354.667816 
	C428.653595,359.462158 434.828827,361.961029 440.060333,360.472778 
	C445.428772,358.945557 449.078430,354.221924 449.071655,348.809723 
	C449.062683,341.681183 444.069366,336.355072 437.232117,336.181152 
	C429.737122,335.990509 424.776733,340.979706 424.197968,350.107056 
z"/>
<path fill="#12100B" opacity="1.000000" stroke="none" 
	d="
M560.134888,316.142029 
	C550.800415,324.210815 539.443665,318.084717 537.853149,310.122437 
	C536.751831,304.609253 538.516296,299.372192 543.484619,296.143311 
	C548.374573,292.965332 554.336975,293.267151 559.095947,296.933411 
	C563.179810,300.079712 564.936401,306.247192 562.990356,311.170349 
	C562.337402,312.822144 561.275330,314.312225 560.134888,316.142029 
z"/>
<path fill="#11100A" opacity="1.000000" stroke="none" 
	d="
M653.334656,415.610779 
	C658.158508,408.136230 665.526550,406.190216 672.259277,410.289764 
	C678.380432,414.016968 680.006470,422.112152 675.940979,428.618927 
	C672.804504,433.638947 665.343445,435.696838 659.774658,433.077881 
	C653.166931,429.970367 650.640137,423.409363 653.334656,415.610779 
z"/>
<path fill="#11100A" opacity="1.000000" stroke="none" 
	d="
M424.190735,349.706299 
	C424.776733,340.979706 429.737122,335.990509 437.232117,336.181152 
	C444.069366,336.355072 449.062683,341.681183 449.071655,348.809723 
	C449.078430,354.221924 445.428772,358.945557 440.060333,360.472778 
	C434.828827,361.961029 428.653595,359.462158 426.026855,354.667816 
	C425.245483,353.241669 424.798279,351.632416 424.190735,349.706299 
z"/>
</svg>